# xmcd CD database file
# Copyright (C) 1993-1998 Ti Kan
#
# Track frame offsets:
#  150
#  11605
#  24043
#  38583
#  55118
#  65618
#  79643
#  93355
#  109053
#  123978
#  147710
#
# Disc length: 2076 seconds
#
# Revision: 1
# Processed by: cddbd v1.4b41PL1 Copyright (c) Steve Scherf et al.
# Submitted via: CDWizzard Release:4.35
#
DISCID=85081a0b
DTITLE=Various Artist - Best  Of The Blues Vol. 1
DYEAR=1900
DGENRE=
TTITLE0=Boom Boom - John Lee Hooker
TTITLE1=Killing Floor- Howling Wolf
TTITLE2=Trouble In Mind- Brownie McGhee and Sonny Terry
TTITLE3=Coffee Blues- Mississippi John Hurt
TTITLE4=Baby, What You Eant Me To Do- Jimmy Reed
TTITLE5=You Gonna Need My Help- Muddy Waters
TTITLE6=Where Did You Sleep Last Night- Leadbelly
TTITLE7=Mother Earth- Memphis Slim
TTITLE8=MoJo Hand- Lightnin' Hopkins
TTITLE9=Pretty Flower In Your Back Yard- Leadbelly
TTITLE10=American Online Garbage
EXTD=
EXTT0=
EXTT1=
EXTT2=
EXTT3=
EXTT4=
EXTT5=
EXTT6=
EXTT7=
EXTT8=
EXTT9=
EXTT10=
PLAYORDER=
